<mxfile host="app.diagrams.net" modified="2022-03-09T21:13:30.966Z" agent="5.0 (Windows)" etag="JliaKslD1l5B4AIkoTrr" version="16.6.2" type="github">
  <diagram id="0cP2L5NapRZ2q6dpNI_G" name="Page-1">
    <mxGraphModel dx="1556" dy="3209" grid="1" gridSize="10" guides="1" tooltips="1" connect="1" arrows="1" fold="1" page="1" pageScale="1" pageWidth="850" pageHeight="1100" math="0" shadow="0">
      <root>
        <mxCell id="0" />
        <mxCell id="1" parent="0" />
        <mxCell id="_hFObNWpqlc1TxxzcIpo-1" value="&lt;br&gt;&lt;div style=&quot;font-size: 16px&quot; align=&quot;left&quot;&gt;&lt;font style=&quot;font-size: 16px&quot;&gt;&lt;br&gt;&lt;/font&gt;&lt;/div&gt;&lt;div style=&quot;font-size: 16px&quot; align=&quot;left&quot;&gt;&lt;div style=&quot;font-size: 16px&quot; align=&quot;left&quot;&gt;&lt;font style=&quot;font-size: 16px&quot;&gt;-- trainers, receptionist, servicing&amp;nbsp; staff , members&lt;br style=&quot;font-size: 16px&quot;&gt;-- weight room , locker room, cardio area&lt;/font&gt;&lt;/div&gt;&lt;div style=&quot;font-size: 16px&quot; align=&quot;left&quot;&gt;&lt;font style=&quot;font-size: 16px&quot;&gt;Members can register themselves or through a receptionist, in any case the receptionist is responsible to verify the &lt;br&gt;registration.&amp;nbsp; Members are trained by one trainer in most cases, or they can train without the trainer.&amp;nbsp; Trainers may &lt;br&gt;work either in the Cardio Area or in the Weight Area. Each of the Areas should have a Supervisor present at all times.&lt;/font&gt;&lt;/div&gt;&lt;div style=&quot;font-size: 16px&quot; align=&quot;left&quot;&gt;&lt;span&gt;Registered members and non-registered visitors may visit the gym, with or without advance reservations,&lt;/span&gt;&lt;/div&gt;&lt;div style=&quot;font-size: 16px&quot; align=&quot;left&quot;&gt;&lt;font style=&quot;font-size: 16px&quot;&gt;provided there is a physical capacity available for the Cardio Area and the Weight Area. &lt;br&gt;&lt;/font&gt;&lt;/div&gt;&lt;div style=&quot;font-size: 16px&quot; align=&quot;left&quot;&gt;&lt;font style=&quot;font-size: 16px&quot;&gt;to see the capacity - &amp;gt; triggers (if statement) or query with select and join and unity&amp;nbsp; &lt;br&gt;&lt;/font&gt;&lt;/div&gt;&lt;div style=&quot;font-size: 16px&quot; align=&quot;left&quot;&gt;&lt;font style=&quot;font-size: 16px&quot;&gt;The registrations can be made by members directly on a website, or through the receptionists &lt;br&gt;&lt;/font&gt;&lt;/div&gt;&lt;div style=&quot;font-size: 16px&quot; align=&quot;left&quot;&gt;&lt;font style=&quot;font-size: 16px&quot;&gt;&lt;br&gt;&lt;/font&gt;&lt;/div&gt;&lt;div style=&quot;font-size: 16px&quot; align=&quot;left&quot;&gt;&lt;font style=&quot;font-size: 16px&quot;&gt;payments&lt;/font&gt;&lt;/div&gt;&lt;div style=&quot;font-size: 16px&quot; align=&quot;left&quot;&gt;&lt;font style=&quot;font-size: 16px&quot;&gt;annual subscription or pay per visit , two free visits per year for new visitors &lt;br&gt;&lt;/font&gt;&lt;/div&gt;&lt;div style=&quot;font-size: 16px&quot; align=&quot;left&quot;&gt;&lt;font style=&quot;font-size: 16px&quot;&gt;&lt;br&gt;&lt;/font&gt;&lt;/div&gt;&lt;div style=&quot;font-size: 16px&quot; align=&quot;left&quot;&gt;&lt;font style=&quot;font-size: 16px&quot;&gt;&lt;br&gt;&lt;/font&gt;&lt;/div&gt;&lt;div style=&quot;font-size: 16px&quot; align=&quot;left&quot;&gt;&lt;font style=&quot;font-size: 16px&quot;&gt;&lt;br&gt;&lt;/font&gt;&lt;/div&gt;&lt;div style=&quot;font-size: 16px&quot; align=&quot;left&quot;&gt;&lt;font style=&quot;font-size: 16px&quot;&gt;&lt;br&gt;&lt;/font&gt;&lt;/div&gt;&lt;div style=&quot;font-size: 16px&quot; align=&quot;left&quot;&gt;&lt;font style=&quot;font-size: 16px&quot;&gt;Basil&#39;s questions: - will visitors have to chose cardio or weights before entering ? I guess so :)&amp;nbsp;&lt;/font&gt;&lt;/div&gt;&lt;div style=&quot;font-size: 16px&quot; align=&quot;left&quot;&gt;&lt;font style=&quot;font-size: 16px&quot;&gt;&lt;span style=&quot;white-space: pre&quot;&gt; &lt;/span&gt;&lt;span style=&quot;white-space: pre&quot;&gt; &lt;/span&gt;&lt;span style=&quot;white-space: pre&quot;&gt;-&lt;/span&gt;&amp;nbsp;when registration is done for a visitor, it will allow him or her to workout for how long&amp;nbsp; (slot times)?&lt;/font&gt;&lt;/div&gt;&lt;div style=&quot;font-size: 16px&quot; align=&quot;left&quot;&gt;&lt;font style=&quot;font-size: 16px&quot;&gt;^^ trigger&amp;nbsp;&lt;/font&gt;&lt;/div&gt;&lt;div style=&quot;font-size: 16px&quot; align=&quot;left&quot;&gt;&lt;font&gt;&lt;span style=&quot;white-space: pre&quot;&gt;- what will be PK for cardio and weight area?  &lt;/span&gt;&lt;/font&gt;&lt;/div&gt;&lt;div style=&quot;font-size: 16px&quot; align=&quot;left&quot;&gt;&lt;font&gt;&lt;span style=&quot;white-space: pre&quot;&gt;- Perhaps make a table for non members?&lt;/span&gt;&lt;/font&gt;&lt;/div&gt;&lt;div style=&quot;font-size: 16px&quot; align=&quot;left&quot;&gt;&lt;span&gt;- each receptionist should record many visits and&amp;nbsp;&lt;/span&gt;&lt;span&gt;visits are recorded by 0 to 1 receptionist.&amp;nbsp;&lt;/span&gt;&lt;/div&gt;&lt;div style=&quot;font-size: 16px&quot; align=&quot;left&quot;&gt;&lt;span&gt;- each member can make many visits.&amp;nbsp;&lt;/span&gt;&lt;/div&gt;&lt;div style=&quot;font-size: 16px&quot; align=&quot;left&quot;&gt;&lt;span&gt;- each specific visit can be made by 1 member&amp;nbsp;&lt;/span&gt;&lt;span&gt;&amp;nbsp;&lt;/span&gt;&lt;span&gt;&amp;nbsp;&lt;/span&gt;&lt;/div&gt;&lt;div style=&quot;font-size: 16px&quot; align=&quot;left&quot;&gt;&lt;font style=&quot;font-size: 16px&quot;&gt;&lt;span style=&quot;white-space: pre&quot;&gt; &lt;/span&gt;&lt;span style=&quot;white-space: pre&quot;&gt; &lt;/span&gt;&lt;span style=&quot;white-space: pre&quot;&gt; &lt;/span&gt;&lt;br&gt;&lt;/font&gt;&lt;/div&gt;&amp;nbsp;&lt;br&gt;&lt;div style=&quot;font-size: 16px&quot; align=&quot;left&quot;&gt;&lt;font style=&quot;font-size: 16px&quot;&gt;&lt;br&gt;&lt;/font&gt;&lt;/div&gt;&lt;/div&gt;&lt;div style=&quot;font-size: 16px&quot; align=&quot;left&quot;&gt;&lt;font style=&quot;font-size: 16px&quot;&gt;&lt;br&gt;&lt;/font&gt;&lt;/div&gt;" style="text;html=1;align=left;verticalAlign=middle;resizable=0;points=[];autosize=1;strokeColor=none;fillColor=none;" vertex="1" parent="1">
          <mxGeometry x="10" y="-2050" width="840" height="430" as="geometry" />
        </mxCell>
        <mxCell id="_hFObNWpqlc1TxxzcIpo-2" value="Subscriptions" style="swimlane;childLayout=stackLayout;horizontal=1;startSize=30;horizontalStack=0;rounded=1;fontSize=14;fontStyle=0;strokeWidth=2;resizeParent=0;resizeLast=1;shadow=0;dashed=0;align=center;" vertex="1" parent="1">
          <mxGeometry x="880" y="-1945" width="160" height="120" as="geometry" />
        </mxCell>
        <mxCell id="_hFObNWpqlc1TxxzcIpo-3" value="+Attribute1&#xa;+Attribute2&#xa;+Attribute3" style="align=left;strokeColor=none;fillColor=none;spacingLeft=4;fontSize=12;verticalAlign=top;resizable=0;rotatable=0;part=1;" vertex="1" parent="_hFObNWpqlc1TxxzcIpo-2">
          <mxGeometry y="30" width="160" height="90" as="geometry" />
        </mxCell>
        <mxCell id="_hFObNWpqlc1TxxzcIpo-4" value="Receptionists " style="swimlane;childLayout=stackLayout;horizontal=1;startSize=30;horizontalStack=0;rounded=1;fontSize=14;fontStyle=0;strokeWidth=2;resizeParent=0;resizeLast=1;shadow=0;dashed=0;align=center;" vertex="1" parent="1">
          <mxGeometry x="1190" y="-1945" width="160" height="120" as="geometry" />
        </mxCell>
        <mxCell id="_hFObNWpqlc1TxxzcIpo-5" value="+Attribute1&#xa;+Attribute2&#xa;+Attribute3" style="align=left;strokeColor=none;fillColor=none;spacingLeft=4;fontSize=12;verticalAlign=top;resizable=0;rotatable=0;part=1;" vertex="1" parent="_hFObNWpqlc1TxxzcIpo-4">
          <mxGeometry y="30" width="160" height="90" as="geometry" />
        </mxCell>
        <mxCell id="_hFObNWpqlc1TxxzcIpo-6" value="Trainers" style="swimlane;childLayout=stackLayout;horizontal=1;startSize=30;horizontalStack=0;rounded=1;fontSize=14;fontStyle=0;strokeWidth=2;resizeParent=0;resizeLast=1;shadow=0;dashed=0;align=center;" vertex="1" parent="1">
          <mxGeometry x="880" y="-1755" width="160" height="120" as="geometry" />
        </mxCell>
        <mxCell id="_hFObNWpqlc1TxxzcIpo-7" value="+Attribute1&#xa;+Attribute2&#xa;+Attribute3" style="align=left;strokeColor=none;fillColor=none;spacingLeft=4;fontSize=12;verticalAlign=top;resizable=0;rotatable=0;part=1;" vertex="1" parent="_hFObNWpqlc1TxxzcIpo-6">
          <mxGeometry y="30" width="160" height="90" as="geometry" />
        </mxCell>
        <mxCell id="_hFObNWpqlc1TxxzcIpo-8" value="Servicing Staff" style="swimlane;childLayout=stackLayout;horizontal=1;startSize=30;horizontalStack=0;rounded=1;fontSize=14;fontStyle=0;strokeWidth=2;resizeParent=0;resizeLast=1;shadow=0;dashed=0;align=center;" vertex="1" parent="1">
          <mxGeometry x="880" y="-1225" width="159" height="120" as="geometry" />
        </mxCell>
        <mxCell id="_hFObNWpqlc1TxxzcIpo-9" value="+Attribute1&#xa;+Attribute2&#xa;+Attribute3" style="align=left;strokeColor=none;fillColor=none;spacingLeft=4;fontSize=12;verticalAlign=top;resizable=0;rotatable=0;part=1;" vertex="1" parent="_hFObNWpqlc1TxxzcIpo-8">
          <mxGeometry y="30" width="159" height="90" as="geometry" />
        </mxCell>
        <mxCell id="_hFObNWpqlc1TxxzcIpo-10" value="Cardio Area" style="swimlane;childLayout=stackLayout;horizontal=1;startSize=30;horizontalStack=0;rounded=1;fontSize=14;fontStyle=0;strokeWidth=2;resizeParent=0;resizeLast=1;shadow=0;dashed=0;align=center;" vertex="1" parent="1">
          <mxGeometry x="1105" y="-1410" width="160" height="120" as="geometry" />
        </mxCell>
        <mxCell id="_hFObNWpqlc1TxxzcIpo-11" value="+Attribute1&#xa;+Attribute2&#xa;+Attribute3" style="align=left;strokeColor=none;fillColor=none;spacingLeft=4;fontSize=12;verticalAlign=top;resizable=0;rotatable=0;part=1;" vertex="1" parent="_hFObNWpqlc1TxxzcIpo-10">
          <mxGeometry y="30" width="160" height="90" as="geometry" />
        </mxCell>
        <mxCell id="_hFObNWpqlc1TxxzcIpo-12" value="Locker " style="swimlane;childLayout=stackLayout;horizontal=1;startSize=30;horizontalStack=0;rounded=1;fontSize=14;fontStyle=0;strokeWidth=2;resizeParent=0;resizeLast=1;shadow=0;dashed=0;align=center;" vertex="1" parent="1">
          <mxGeometry x="1525" y="-2040" width="160" height="120" as="geometry" />
        </mxCell>
        <mxCell id="_hFObNWpqlc1TxxzcIpo-13" value="+Attribute1&#xa;+Attribute2&#xa;+Attribute3" style="align=left;strokeColor=none;fillColor=none;spacingLeft=4;fontSize=12;verticalAlign=top;resizable=0;rotatable=0;part=1;" vertex="1" parent="_hFObNWpqlc1TxxzcIpo-12">
          <mxGeometry y="30" width="160" height="90" as="geometry" />
        </mxCell>
        <mxCell id="_hFObNWpqlc1TxxzcIpo-14" value="Weight Area" style="swimlane;childLayout=stackLayout;horizontal=1;startSize=30;horizontalStack=0;rounded=1;fontSize=14;fontStyle=0;strokeWidth=2;resizeParent=0;resizeLast=1;shadow=0;dashed=0;align=center;" vertex="1" parent="1">
          <mxGeometry x="865" y="-1410" width="160" height="120" as="geometry" />
        </mxCell>
        <mxCell id="_hFObNWpqlc1TxxzcIpo-15" value="+Attribute1&#xa;+Attribute2&#xa;+Attribute3" style="align=left;strokeColor=none;fillColor=none;spacingLeft=4;fontSize=12;verticalAlign=top;resizable=0;rotatable=0;part=1;" vertex="1" parent="_hFObNWpqlc1TxxzcIpo-14">
          <mxGeometry y="30" width="160" height="90" as="geometry" />
        </mxCell>
        <mxCell id="_hFObNWpqlc1TxxzcIpo-16" style="edgeStyle=orthogonalEdgeStyle;rounded=0;orthogonalLoop=1;jettySize=auto;html=1;fontSize=16;endArrow=none;endFill=0;curved=1;entryX=1;entryY=0.25;entryDx=0;entryDy=0;" edge="1" parent="1" source="_hFObNWpqlc1TxxzcIpo-18" target="_hFObNWpqlc1TxxzcIpo-3">
          <mxGeometry relative="1" as="geometry" />
        </mxCell>
        <mxCell id="_hFObNWpqlc1TxxzcIpo-17" style="edgeStyle=orthogonalEdgeStyle;rounded=0;orthogonalLoop=1;jettySize=auto;html=1;fontSize=16;curved=1;" edge="1" parent="1" source="_hFObNWpqlc1TxxzcIpo-18" target="_hFObNWpqlc1TxxzcIpo-4">
          <mxGeometry relative="1" as="geometry" />
        </mxCell>
        <mxCell id="_hFObNWpqlc1TxxzcIpo-18" value="registers" style="shape=rhombus;html=1;dashed=0;whitespace=wrap;perimeter=rhombusPerimeter;fontSize=16;" vertex="1" parent="1">
          <mxGeometry x="1090" y="-1960" width="60" height="50" as="geometry" />
        </mxCell>
        <mxCell id="_hFObNWpqlc1TxxzcIpo-19" style="edgeStyle=orthogonalEdgeStyle;rounded=0;orthogonalLoop=1;jettySize=auto;html=1;entryX=0.947;entryY=0.997;entryDx=0;entryDy=0;fontSize=16;endArrow=none;endFill=0;curved=1;exitX=0.5;exitY=0;exitDx=0;exitDy=0;entryPerimeter=0;" edge="1" parent="1" source="_hFObNWpqlc1TxxzcIpo-21" target="_hFObNWpqlc1TxxzcIpo-50">
          <mxGeometry relative="1" as="geometry" />
        </mxCell>
        <mxCell id="_hFObNWpqlc1TxxzcIpo-20" style="edgeStyle=orthogonalEdgeStyle;rounded=0;orthogonalLoop=1;jettySize=auto;html=1;fontSize=16;endArrow=none;endFill=0;curved=1;" edge="1" parent="1" source="_hFObNWpqlc1TxxzcIpo-21" target="_hFObNWpqlc1TxxzcIpo-6">
          <mxGeometry relative="1" as="geometry" />
        </mxCell>
        <mxCell id="_hFObNWpqlc1TxxzcIpo-21" value="has" style="shape=rhombus;html=1;dashed=0;whitespace=wrap;perimeter=rhombusPerimeter;fontSize=16;" vertex="1" parent="1">
          <mxGeometry x="1090" y="-1790" width="60" height="50" as="geometry" />
        </mxCell>
        <mxCell id="_hFObNWpqlc1TxxzcIpo-22" style="edgeStyle=orthogonalEdgeStyle;curved=1;rounded=0;orthogonalLoop=1;jettySize=auto;html=1;entryX=0.5;entryY=1;entryDx=0;entryDy=0;fontSize=16;startArrow=none;startFill=0;endArrow=none;endFill=0;" edge="1" parent="1" source="_hFObNWpqlc1TxxzcIpo-24" target="_hFObNWpqlc1TxxzcIpo-7">
          <mxGeometry relative="1" as="geometry" />
        </mxCell>
        <mxCell id="_hFObNWpqlc1TxxzcIpo-23" style="edgeStyle=orthogonalEdgeStyle;curved=1;rounded=0;orthogonalLoop=1;jettySize=auto;html=1;exitX=0.5;exitY=1;exitDx=0;exitDy=0;entryX=0.5;entryY=0;entryDx=0;entryDy=0;fontSize=16;startArrow=none;startFill=0;endArrow=block;endFill=1;" edge="1" parent="1" source="_hFObNWpqlc1TxxzcIpo-24" target="_hFObNWpqlc1TxxzcIpo-10">
          <mxGeometry relative="1" as="geometry" />
        </mxCell>
        <mxCell id="_hFObNWpqlc1TxxzcIpo-24" value="&lt;div&gt;works &lt;br&gt;&lt;/div&gt;&lt;div&gt;in&lt;/div&gt;" style="shape=rhombus;html=1;dashed=0;whitespace=wrap;perimeter=rhombusPerimeter;fontSize=16;" vertex="1" parent="1">
          <mxGeometry x="930" y="-1585" width="60" height="50" as="geometry" />
        </mxCell>
        <mxCell id="_hFObNWpqlc1TxxzcIpo-25" style="edgeStyle=orthogonalEdgeStyle;curved=1;rounded=0;orthogonalLoop=1;jettySize=auto;html=1;fontSize=16;startArrow=none;startFill=0;endArrow=block;endFill=1;entryX=0.75;entryY=0;entryDx=0;entryDy=0;exitX=0;exitY=0.5;exitDx=0;exitDy=0;" edge="1" parent="1" source="_hFObNWpqlc1TxxzcIpo-24" target="_hFObNWpqlc1TxxzcIpo-14">
          <mxGeometry relative="1" as="geometry">
            <mxPoint x="1105" y="-1450" as="sourcePoint" />
            <mxPoint x="995" y="-1420" as="targetPoint" />
          </mxGeometry>
        </mxCell>
        <mxCell id="_hFObNWpqlc1TxxzcIpo-26" style="edgeStyle=orthogonalEdgeStyle;curved=1;rounded=0;orthogonalLoop=1;jettySize=auto;html=1;entryX=1;entryY=0.5;entryDx=0;entryDy=0;fontSize=16;startArrow=none;startFill=0;endArrow=none;endFill=0;" edge="1" parent="1" source="_hFObNWpqlc1TxxzcIpo-28" target="_hFObNWpqlc1TxxzcIpo-50">
          <mxGeometry relative="1" as="geometry" />
        </mxCell>
        <mxCell id="_hFObNWpqlc1TxxzcIpo-27" style="edgeStyle=orthogonalEdgeStyle;curved=1;rounded=0;orthogonalLoop=1;jettySize=auto;html=1;entryX=0;entryY=0.5;entryDx=0;entryDy=0;fontSize=16;startArrow=none;startFill=0;endArrow=block;endFill=1;exitX=1;exitY=0.5;exitDx=0;exitDy=0;" edge="1" parent="1" source="_hFObNWpqlc1TxxzcIpo-28" target="_hFObNWpqlc1TxxzcIpo-29">
          <mxGeometry relative="1" as="geometry" />
        </mxCell>
        <mxCell id="_hFObNWpqlc1TxxzcIpo-28" value="makes" style="shape=rhombus;html=1;dashed=0;whitespace=wrap;perimeter=rhombusPerimeter;fontSize=16;" vertex="1" parent="1">
          <mxGeometry x="1130" y="-2110" width="60" height="50" as="geometry" />
        </mxCell>
        <mxCell id="_hFObNWpqlc1TxxzcIpo-29" value="Visits" style="swimlane;childLayout=stackLayout;horizontal=1;startSize=30;horizontalStack=0;rounded=1;fontSize=14;fontStyle=0;strokeWidth=2;resizeParent=0;resizeLast=1;shadow=0;dashed=0;align=center;" vertex="1" parent="1">
          <mxGeometry x="1335" y="-2145" width="160" height="120" as="geometry" />
        </mxCell>
        <mxCell id="_hFObNWpqlc1TxxzcIpo-30" value="+visit_id&#xa;+date&#xa;+duration" style="align=left;strokeColor=none;fillColor=none;spacingLeft=4;fontSize=12;verticalAlign=top;resizable=0;rotatable=0;part=1;" vertex="1" parent="_hFObNWpqlc1TxxzcIpo-29">
          <mxGeometry y="30" width="160" height="90" as="geometry" />
        </mxCell>
        <mxCell id="_hFObNWpqlc1TxxzcIpo-31" value="" style="edgeStyle=orthogonalEdgeStyle;curved=1;rounded=0;orthogonalLoop=1;jettySize=auto;html=1;fontSize=16;startArrow=none;startFill=0;endArrow=block;endFill=1;entryX=0.75;entryY=0;entryDx=0;entryDy=0;exitX=1;exitY=0.5;exitDx=0;exitDy=0;" edge="1" parent="1" source="_hFObNWpqlc1TxxzcIpo-33" target="_hFObNWpqlc1TxxzcIpo-12">
          <mxGeometry relative="1" as="geometry" />
        </mxCell>
        <mxCell id="_hFObNWpqlc1TxxzcIpo-32" style="rounded=0;orthogonalLoop=1;jettySize=auto;html=1;entryX=1;entryY=0.5;entryDx=0;entryDy=0;fontSize=16;startArrow=none;startFill=0;endArrow=none;endFill=0;exitX=0;exitY=0.5;exitDx=0;exitDy=0;edgeStyle=orthogonalEdgeStyle;curved=1;" edge="1" parent="1" source="_hFObNWpqlc1TxxzcIpo-33" target="_hFObNWpqlc1TxxzcIpo-30">
          <mxGeometry relative="1" as="geometry" />
        </mxCell>
        <mxCell id="_hFObNWpqlc1TxxzcIpo-33" value="occupies " style="shape=rhombus;html=1;dashed=0;whitespace=wrap;perimeter=rhombusPerimeter;fontSize=16;" vertex="1" parent="1">
          <mxGeometry x="1555" y="-2110" width="60" height="50" as="geometry" />
        </mxCell>
        <mxCell id="_hFObNWpqlc1TxxzcIpo-34" style="edgeStyle=orthogonalEdgeStyle;curved=1;rounded=0;orthogonalLoop=1;jettySize=auto;html=1;fontSize=16;startArrow=none;startFill=0;endArrow=none;endFill=0;entryX=0.25;entryY=1;entryDx=0;entryDy=0;" edge="1" parent="1" source="_hFObNWpqlc1TxxzcIpo-37" target="_hFObNWpqlc1TxxzcIpo-30">
          <mxGeometry relative="1" as="geometry">
            <mxPoint x="1395" y="-1755" as="targetPoint" />
          </mxGeometry>
        </mxCell>
        <mxCell id="_hFObNWpqlc1TxxzcIpo-35" style="edgeStyle=orthogonalEdgeStyle;curved=1;rounded=0;orthogonalLoop=1;jettySize=auto;html=1;fontSize=16;startArrow=none;startFill=0;endArrow=block;endFill=1;exitX=0.5;exitY=1;exitDx=0;exitDy=0;" edge="1" parent="1" source="_hFObNWpqlc1TxxzcIpo-37" target="_hFObNWpqlc1TxxzcIpo-14">
          <mxGeometry relative="1" as="geometry" />
        </mxCell>
        <mxCell id="_hFObNWpqlc1TxxzcIpo-36" style="edgeStyle=orthogonalEdgeStyle;curved=1;rounded=0;orthogonalLoop=1;jettySize=auto;html=1;entryX=0.86;entryY=0;entryDx=0;entryDy=0;fontSize=16;startArrow=none;startFill=0;endArrow=block;endFill=1;exitX=0.5;exitY=1;exitDx=0;exitDy=0;entryPerimeter=0;" edge="1" parent="1" source="_hFObNWpqlc1TxxzcIpo-37" target="_hFObNWpqlc1TxxzcIpo-10">
          <mxGeometry relative="1" as="geometry" />
        </mxCell>
        <mxCell id="_hFObNWpqlc1TxxzcIpo-37" value="&lt;div&gt;trains &lt;br&gt;&lt;/div&gt;&lt;div&gt;in&lt;/div&gt;" style="shape=rhombus;html=1;dashed=0;whitespace=wrap;perimeter=rhombusPerimeter;fontSize=16;" vertex="1" parent="1">
          <mxGeometry x="1350" y="-1635" width="60" height="50" as="geometry" />
        </mxCell>
        <mxCell id="_hFObNWpqlc1TxxzcIpo-38" value="" style="edgeStyle=orthogonalEdgeStyle;curved=1;rounded=0;orthogonalLoop=1;jettySize=auto;html=1;fontSize=16;startArrow=none;startFill=0;endArrow=none;endFill=0;entryX=0.75;entryY=0;entryDx=0;entryDy=0;" edge="1" parent="1" source="_hFObNWpqlc1TxxzcIpo-40" target="_hFObNWpqlc1TxxzcIpo-4">
          <mxGeometry relative="1" as="geometry" />
        </mxCell>
        <mxCell id="_hFObNWpqlc1TxxzcIpo-39" value="" style="edgeStyle=orthogonalEdgeStyle;curved=1;rounded=0;orthogonalLoop=1;jettySize=auto;html=1;fontSize=16;startArrow=none;startFill=0;endArrow=block;endFill=0;entryX=0;entryY=0.5;entryDx=0;entryDy=0;exitX=0.5;exitY=0;exitDx=0;exitDy=0;" edge="1" parent="1" source="_hFObNWpqlc1TxxzcIpo-40" target="_hFObNWpqlc1TxxzcIpo-30">
          <mxGeometry relative="1" as="geometry" />
        </mxCell>
        <mxCell id="_hFObNWpqlc1TxxzcIpo-40" value="records" style="shape=rhombus;html=1;dashed=0;whitespace=wrap;perimeter=rhombusPerimeter;fontSize=16;" vertex="1" parent="1">
          <mxGeometry x="1245" y="-2050" width="60" height="50" as="geometry" />
        </mxCell>
        <mxCell id="_hFObNWpqlc1TxxzcIpo-41" value="Supervisor " style="swimlane;childLayout=stackLayout;horizontal=1;startSize=30;horizontalStack=0;rounded=1;fontSize=14;fontStyle=0;strokeWidth=2;resizeParent=0;resizeLast=1;shadow=0;dashed=0;align=center;" vertex="1" parent="1">
          <mxGeometry x="1190" y="-1750" width="160" height="120" as="geometry" />
        </mxCell>
        <mxCell id="_hFObNWpqlc1TxxzcIpo-42" value="+Attribute1&#xa;+Attribute2&#xa;+Attribute3" style="align=left;strokeColor=none;fillColor=none;spacingLeft=4;fontSize=12;verticalAlign=top;resizable=0;rotatable=0;part=1;" vertex="1" parent="_hFObNWpqlc1TxxzcIpo-41">
          <mxGeometry y="30" width="160" height="90" as="geometry" />
        </mxCell>
        <mxCell id="_hFObNWpqlc1TxxzcIpo-43" value="Invoice " style="swimlane;childLayout=stackLayout;horizontal=1;startSize=30;horizontalStack=0;rounded=1;fontSize=14;fontStyle=0;strokeWidth=2;resizeParent=0;resizeLast=1;shadow=0;dashed=0;align=center;" vertex="1" parent="1">
          <mxGeometry x="1505" y="-1825" width="160" height="120" as="geometry" />
        </mxCell>
        <mxCell id="_hFObNWpqlc1TxxzcIpo-44" value="+Attribute1&#xa;+Attribute2&#xa;+Attribute3" style="align=left;strokeColor=none;fillColor=none;spacingLeft=4;fontSize=12;verticalAlign=top;resizable=0;rotatable=0;part=1;" vertex="1" parent="_hFObNWpqlc1TxxzcIpo-43">
          <mxGeometry y="30" width="160" height="90" as="geometry" />
        </mxCell>
        <mxCell id="_hFObNWpqlc1TxxzcIpo-45" value="Payment" style="swimlane;childLayout=stackLayout;horizontal=1;startSize=30;horizontalStack=0;rounded=1;fontSize=14;fontStyle=0;strokeWidth=2;resizeParent=0;resizeLast=1;shadow=0;dashed=0;align=center;" vertex="1" parent="1">
          <mxGeometry x="1500" y="-1580" width="160" height="120" as="geometry" />
        </mxCell>
        <mxCell id="_hFObNWpqlc1TxxzcIpo-46" value="+Attribute1&#xa;+Attribute2&#xa;+Attribute3" style="align=left;strokeColor=none;fillColor=none;spacingLeft=4;fontSize=12;verticalAlign=top;resizable=0;rotatable=0;part=1;" vertex="1" parent="_hFObNWpqlc1TxxzcIpo-45">
          <mxGeometry y="30" width="160" height="90" as="geometry" />
        </mxCell>
        <mxCell id="_hFObNWpqlc1TxxzcIpo-47" value="Hourly rate for workers" style="swimlane;childLayout=stackLayout;horizontal=1;startSize=30;horizontalStack=0;rounded=1;fontSize=14;fontStyle=0;strokeWidth=2;resizeParent=0;resizeLast=1;shadow=0;dashed=0;align=center;" vertex="1" parent="1">
          <mxGeometry x="1500" y="-1230" width="160" height="120" as="geometry" />
        </mxCell>
        <mxCell id="_hFObNWpqlc1TxxzcIpo-48" value="+Attribute1&#xa;+Attribute2&#xa;+Attribute3" style="align=left;strokeColor=none;fillColor=none;spacingLeft=4;fontSize=12;verticalAlign=top;resizable=0;rotatable=0;part=1;" vertex="1" parent="_hFObNWpqlc1TxxzcIpo-47">
          <mxGeometry y="30" width="160" height="90" as="geometry" />
        </mxCell>
        <mxCell id="_hFObNWpqlc1TxxzcIpo-49" value="Person" style="swimlane;childLayout=stackLayout;horizontal=1;startSize=30;horizontalStack=0;rounded=1;fontSize=14;fontStyle=0;strokeWidth=2;resizeParent=0;resizeLast=1;shadow=0;dashed=0;align=center;" vertex="1" parent="1">
          <mxGeometry x="880" y="-2160" width="160" height="120" as="geometry" />
        </mxCell>
        <mxCell id="_hFObNWpqlc1TxxzcIpo-50" value="+p_id&#xa;+name&#xa;+phone number&#xa;+email&#xa;+member y/n" style="align=left;strokeColor=none;fillColor=none;spacingLeft=4;fontSize=12;verticalAlign=top;resizable=0;rotatable=0;part=1;" vertex="1" parent="_hFObNWpqlc1TxxzcIpo-49">
          <mxGeometry y="30" width="160" height="90" as="geometry" />
        </mxCell>
        <mxCell id="_hFObNWpqlc1TxxzcIpo-52" value="" style="edgeStyle=orthogonalEdgeStyle;rounded=0;orthogonalLoop=1;jettySize=auto;html=1;" edge="1" parent="1" source="_hFObNWpqlc1TxxzcIpo-51" target="_hFObNWpqlc1TxxzcIpo-50">
          <mxGeometry relative="1" as="geometry" />
        </mxCell>
        <mxCell id="_hFObNWpqlc1TxxzcIpo-55" value="" style="edgeStyle=orthogonalEdgeStyle;rounded=0;orthogonalLoop=1;jettySize=auto;html=1;" edge="1" parent="1" source="_hFObNWpqlc1TxxzcIpo-51">
          <mxGeometry relative="1" as="geometry">
            <mxPoint x="960" y="-1940" as="targetPoint" />
          </mxGeometry>
        </mxCell>
        <mxCell id="_hFObNWpqlc1TxxzcIpo-51" value="registers" style="shape=rhombus;html=1;dashed=0;whitespace=wrap;perimeter=rhombusPerimeter;fontSize=16;" vertex="1" parent="1">
          <mxGeometry x="930" y="-2020" width="60" height="50" as="geometry" />
        </mxCell>
        <mxCell id="_hFObNWpqlc1TxxzcIpo-65" style="edgeStyle=orthogonalEdgeStyle;curved=1;rounded=0;orthogonalLoop=1;jettySize=auto;html=1;entryX=0.65;entryY=1.039;entryDx=0;entryDy=0;entryPerimeter=0;" edge="1" parent="1" source="_hFObNWpqlc1TxxzcIpo-58" target="_hFObNWpqlc1TxxzcIpo-30">
          <mxGeometry relative="1" as="geometry" />
        </mxCell>
        <mxCell id="_hFObNWpqlc1TxxzcIpo-66" style="edgeStyle=orthogonalEdgeStyle;curved=1;rounded=0;orthogonalLoop=1;jettySize=auto;html=1;entryX=0.017;entryY=0.133;entryDx=0;entryDy=0;entryPerimeter=0;exitX=0.5;exitY=1;exitDx=0;exitDy=0;" edge="1" parent="1" source="_hFObNWpqlc1TxxzcIpo-58" target="_hFObNWpqlc1TxxzcIpo-43">
          <mxGeometry relative="1" as="geometry">
            <Array as="points">
              <mxPoint x="1440" y="-1830" />
              <mxPoint x="1490" y="-1830" />
              <mxPoint x="1490" y="-1809" />
            </Array>
          </mxGeometry>
        </mxCell>
        <mxCell id="_hFObNWpqlc1TxxzcIpo-58" value="&lt;div&gt;charged &lt;br&gt;&lt;/div&gt;&lt;div&gt;in&lt;/div&gt;" style="shape=rhombus;html=1;dashed=0;whitespace=wrap;perimeter=rhombusPerimeter;fontSize=16;" vertex="1" parent="1">
          <mxGeometry x="1410" y="-1900" width="60" height="50" as="geometry" />
        </mxCell>
        <mxCell id="_hFObNWpqlc1TxxzcIpo-60" style="edgeStyle=orthogonalEdgeStyle;curved=1;rounded=0;orthogonalLoop=1;jettySize=auto;html=1;entryX=1.009;entryY=0.636;entryDx=0;entryDy=0;entryPerimeter=0;" edge="1" parent="1" source="_hFObNWpqlc1TxxzcIpo-59" target="_hFObNWpqlc1TxxzcIpo-3">
          <mxGeometry relative="1" as="geometry" />
        </mxCell>
        <mxCell id="_hFObNWpqlc1TxxzcIpo-61" style="edgeStyle=orthogonalEdgeStyle;curved=1;rounded=0;orthogonalLoop=1;jettySize=auto;html=1;entryX=0;entryY=0.5;entryDx=0;entryDy=0;" edge="1" parent="1" source="_hFObNWpqlc1TxxzcIpo-59" target="_hFObNWpqlc1TxxzcIpo-43">
          <mxGeometry relative="1" as="geometry" />
        </mxCell>
        <mxCell id="_hFObNWpqlc1TxxzcIpo-59" value="&lt;div&gt;charged &lt;br&gt;&lt;/div&gt;&lt;div&gt;in&lt;/div&gt;" style="shape=rhombus;html=1;dashed=0;whitespace=wrap;perimeter=rhombusPerimeter;fontSize=16;" vertex="1" parent="1">
          <mxGeometry x="1410" y="-1790" width="60" height="50" as="geometry" />
        </mxCell>
        <mxCell id="_hFObNWpqlc1TxxzcIpo-63" value="" style="edgeStyle=orthogonalEdgeStyle;curved=1;rounded=0;orthogonalLoop=1;jettySize=auto;html=1;" edge="1" parent="1" source="_hFObNWpqlc1TxxzcIpo-62" target="_hFObNWpqlc1TxxzcIpo-44">
          <mxGeometry relative="1" as="geometry" />
        </mxCell>
        <mxCell id="_hFObNWpqlc1TxxzcIpo-64" value="" style="edgeStyle=orthogonalEdgeStyle;curved=1;rounded=0;orthogonalLoop=1;jettySize=auto;html=1;" edge="1" parent="1" source="_hFObNWpqlc1TxxzcIpo-62">
          <mxGeometry relative="1" as="geometry">
            <mxPoint x="1585" y="-1580" as="targetPoint" />
          </mxGeometry>
        </mxCell>
        <mxCell id="_hFObNWpqlc1TxxzcIpo-62" value="paid" style="shape=rhombus;html=1;dashed=0;whitespace=wrap;perimeter=rhombusPerimeter;fontSize=16;" vertex="1" parent="1">
          <mxGeometry x="1555" y="-1670" width="60" height="50" as="geometry" />
        </mxCell>
      </root>
    </mxGraphModel>
  </diagram>
</mxfile>
